{"title":"Groundhog Day 1993 BDRip XviD-PsiX","uid":9611815,"size":731972810,"categoryP":"video","categoryS":"movies","magnet":"?xt=urn:btih:48c009710b69ea7aed1c05e4e6be3725f013d11b&amp;dn=Groundhog+Day+1993+BDRip+XviD-PsiX&amp;tr=udp%3A%2F%2Ftracker.openbittorrent.com%3A80&amp;tr=udp%3A%2F%2Fopen.demonii.com%3A1337&amp;tr=udp%3A%2F%2Ftracker.coppersurfer.tk%3A6969&amp;tr=udp%3A%2F%2Fexodus.desync.com%3A6969","seeders":4,"leechers":0,"uploader":"sakhslitsa","files":5,"time":1392333591,"description":" &lt;a href=&quot;http://www.imdb.com/title/tt0107048/&quot; rel=&quot;nofollow&quot; target=&quot;_NEW&quot;&gt;http://www.imdb.com/title/tt0107048/&lt;/a&gt;\n\n\n\nFormat : AVI\nFormat/Info : Audio Video Interleave\nFile size : 692 MiB\nDuration : 1h 41mn\nOverall bit rate mode : Variable\nOverall bit rate : 957 Kbps\n\nVideo\nID : 0\nFormat : MPEG-4 Visual\nFormat profile : Advanced Simple@L5\nFormat settings, BVOP : 2\nFormat settings, QPel : No\nFormat settings, GMC : No warppoints\nFormat settings, Matrix : Default (H.263)\nCodec ID : XVID\nCodec ID/Hint : XviD\nDuration : 1h 41mn\nBit rate : 827 Kbps\nWidth : 640 pixels\nHeight : 352 pixels\nDisplay aspect ratio : 16:9\nFrame rate : 23.976 fps\nColor space : YUV\nChroma subsampling : 4:2:0\nBit depth : 8 bits\nScan type : Progressive\nCompression mode : Lossy\nBits/(Pixel*Frame) : 0.153\nStream size : 598 MiB (86%)\nWriting library : XviD 1.2.1 (UTC 2008-12-04)\n\nAudio\nID : 1\nFormat : MPEG Audio\nFormat version : Version 1\nFormat profile : Layer 3\nMode : Joint stereo\nMode extension : MS Stereo\nCodec ID : 55\nCodec ID/Hint : MP3\nDuration : 1h 41mn\nBit rate mode : Variable\nBit rate : 118 Kbps\nNominal bit rate : 128 Kbps\nChannel(s) : 2 channels\nSampling rate : 48.0 KHz\nCompression mode : Lossy\nStream size : 85.0 MiB (12%)\nAlignment : Aligned on interleaves\nInterleave, duration : 24 ms (0.58 video frame)\nInterleave, preload duration : 135 ms\nTitle : T4_Audio - English\nWriting library : LAME3.99r\nEncoding settings : -m j -V 4 -q 2 -lowpass 17 --abr 128\n\n\n\nEncoded....................PsiX\nSource.....................Blu-ray Disc\nSample.....................Yes\nSubs (srt).................English\n\n\n\nGreetz To: tomcat-12 | Blacksheep | FWOLF | CFR .....\n.....and all P2P Encoders and Groups.....","torrent":{"xt":"urn:btih:48c009710b69ea7aed1c05e4e6be3725f013d11b","amp;dn":"Groundhog+Day+1993+BDRip+XviD-PsiX","amp;tr":["udp%3A%2F%2Ftracker.openbittorrent.com%3A80","udp%3A%2F%2Fopen.demonii.com%3A1337","udp%3A%2F%2Ftracker.coppersurfer.tk%3A6969","udp%3A%2F%2Fexodus.desync.com%3A6969"],"infoHash":"48c009710b69ea7aed1c05e4e6be3725f013d11b","infoHashBuffer":{"type":"Buffer","data":[72,192,9,113,11,105,234,122,237,28,5,228,230,190,55,37,240,19,209,27]},"announce":[],"urlList":[]}}